<?xml version="1.0" encoding="UTF-8" standalone="no"?>
<!DOCTYPE svg PUBLIC "-//W3C//DTD SVG 1.1//EN" "http://www.w3.org/Graphics/SVG/1.1/DTD/svg11.dtd">
<svg xmlns="http://www.w3.org/2000/svg" version="1.1" viewBox="0.00 0.00 1000.00 800.00" width="50" height="50">
<path fill="#ffffff" d="
  M 641.58 513.93
  Q 638.68 509.81 635.68 505.37
  C 568.37 405.84 643.59 272.99 763.74 280.06
  C 834.65 284.24 890.54 339.85 898.14 409.25
  C 903.10 454.51 884.95 499.36 852.65 529.65
  C 803.75 575.50 728.76 580.71 673.36 542.86
  Q 669.04 539.91 664.71 536.96
  Q 664.29 536.68 663.93 537.04
  C 630.90 570.04 597.92 603.08 564.77 635.95
  Q 558.81 641.85 555.65 643.27
  C 541.04 649.84 527.11 629.44 539.13 617.35
  Q 589.47 566.69 641.52 514.65
  Q 641.86 514.31 641.58 513.93
  Z
  M 705.12 363.37
  Q 710.93 329.53 740.91 312.97
  Q 741.09 312.87 740.99 312.70
  Q 740.75 312.30 740.26 312.37
  C 695.96 318.61 659.39 349.49 646.88 392.40
  C 624.71 468.45 685.45 541.88 763.56 536.10
  C 811.09 532.59 850.93 498.89 863.33 453.51
  C 874.01 414.43 862.82 373.72 834.42 344.64
  Q 833.57 343.78 834.01 344.91
  C 837.16 353.09 839.57 359.79 839.88 369.24
  C 840.14 377.12 840.10 382.62 838.21 389.73
  C 829.83 421.25 802.51 442.25 769.75 441.13
  C 740.32 440.12 715.40 420.25 707.06 392.35
  Q 702.67 377.67 705.12 363.37
  Z"
/>
<path fill="#ffffff" d="
  M 41.90 769.49
  C 44.64 742.68 61.15 721.24 88.47 717.75
  C 97.12 716.64 108.02 718.43 116.13 721.95
  C 146.38 735.11 150.95 769.64 147.05 798.49
  C 143.15 827.38 122.13 847.88 92.01 846.19
  C 50.02 843.84 38.26 805.06 41.90 769.49
  Z
  M 99.63 739.56
  C 87.10 737.55 76.95 742.66 72.03 754.01
  Q 70.28 758.03 69.91 759.73
  C 65.76 778.77 63.41 822.21 92.01 824.96
  C 109.80 826.67 118.70 813.78 121.09 797.92
  Q 121.76 793.44 121.93 784.04
  C 122.23 767.51 120.21 742.86 99.63 739.56
  Z"
/>
<path fill="#ffffff" d="
  M 192.76 740.80
  L 192.77 772.20
  A 0.53 0.53 0.0 0 0 193.30 772.73
  L 241.72 772.70
  A 0.53 0.53 0.0 0 1 242.25 773.23
  L 242.34 792.80
  A 0.53 0.53 0.0 0 1 241.81 793.33
  L 193.30 793.54
  A 0.53 0.53 0.0 0 0 192.77 794.07
  L 192.76 844.08
  A 0.53 0.53 0.0 0 1 192.23 844.61
  L 167.26 844.70
  A 0.53 0.53 0.0 0 1 166.73 844.17
  L 166.76 720.02
  A 0.53 0.53 0.0 0 1 167.29 719.49
  L 247.94 719.47
  A 0.53 0.53 0.0 0 1 248.47 720.00
  L 248.30 739.74
  A 0.53 0.53 0.0 0 1 247.77 740.27
  L 193.29 740.27
  A 0.53 0.53 0.0 0 0 192.76 740.80
  Z"
/>
<path fill="#ffffff" d="
  M 289.87 823.94
  L 346.46 823.96
  A 0.74 0.74 0.0 0 1 347.20 824.69
  L 347.44 843.93
  A 0.74 0.74 0.0 0 1 346.70 844.68
  L 264.18 844.71
  A 0.74 0.74 0.0 0 1 263.44 843.97
  L 263.43 720.23
  A 0.74 0.74 0.0 0 1 264.17 719.49
  L 346.52 719.48
  A 0.74 0.74 0.0 0 1 347.26 720.22
  L 347.26 739.52
  A 0.74 0.74 0.0 0 1 346.52 740.26
  L 289.87 740.27
  A 0.74 0.74 0.0 0 0 289.13 741.01
  L 289.13 769.42
  A 0.74 0.74 0.0 0 0 289.87 770.16
  L 337.94 770.17
  A 0.74 0.74 0.0 0 1 338.68 770.91
  L 338.73 789.57
  A 0.74 0.74 0.0 0 1 337.99 790.31
  L 289.87 790.34
  A 0.74 0.74 0.0 0 0 289.13 791.08
  L 289.13 823.20
  A 0.74 0.74 0.0 0 0 289.87 823.94
  Z"
/>
<path fill="#ffffff" d="
  M 389.22 798.94
  Q 388.26 798.94 388.26 799.90
  L 388.25 843.99
  A 0.74 0.74 0.0 0 1 387.51 844.73
  L 363.20 844.65
  A 0.70 0.70 0.0 0 1 362.50 843.95
  L 362.49 719.98
  A 0.46 0.45 0.0 0 1 362.95 719.53
  Q 385.40 719.40 407.94 719.51
  Q 421.10 719.57 426.90 721.09
  C 448.97 726.90 459.55 745.96 453.94 768.23
  Q 449.76 784.83 433.90 791.69
  A 0.98 0.98 0.0 0 0 433.42 793.05
  L 460.07 843.46
  Q 460.44 844.16 459.73 844.51
  Q 459.33 844.71 458.50 844.70
  Q 445.80 844.65 433.39 844.66
  A 1.68 1.66 -13.3 0 1 431.90 843.75
  L 409.24 799.51
  A 1.13 1.11 -13.3 0 0 408.24 798.90
  L 389.22 798.94
  Z
  M 388.27 741.03
  L 388.33 777.05
  A 0.76 0.76 0.0 0 0 389.09 777.80
  L 411.47 777.77
  A 18.06 17.47 -0.1 0 0 429.50 760.26
  L 429.50 757.66
  A 18.06 17.47 -0.1 0 0 411.41 740.23
  L 389.03 740.26
  A 0.76 0.76 0.0 0 0 388.27 741.03
  Z"
/>
<path fill="#ffffff" d="
  M 530.44 844.71
  L 506.03 844.70
  A 0.80 0.80 0.0 0 1 505.23 843.90
  L 505.21 741.06
  A 0.80 0.80 0.0 0 0 504.41 740.26
  L 467.97 740.26
  A 0.80 0.80 0.0 0 1 467.17 739.46
  L 467.27 720.28
  A 0.80 0.80 0.0 0 1 468.07 719.48
  L 568.58 719.48
  A 0.80 0.80 0.0 0 1 569.38 720.28
  L 569.39 739.46
  A 0.80 0.80 0.0 0 1 568.59 740.26
  L 531.72 740.26
  A 0.80 0.80 0.0 0 0 530.92 741.06
  L 531.24 843.91
  A 0.80 0.80 0.0 0 1 530.44 844.71
  Z"
/>
<path fill="#ffffff" d="
  M 609.59 819.02
  L 601.09 844.42
  A 0.40 0.40 0.0 0 1 600.71 844.69
  L 574.13 844.69
  A 0.40 0.40 0.0 0 1 573.75 844.15
  L 620.06 719.73
  A 0.40 0.40 0.0 0 1 620.44 719.47
  L 643.89 719.47
  A 0.40 0.40 0.0 0 1 644.27 719.73
  L 690.88 844.19
  A 0.40 0.40 0.0 0 1 690.50 844.73
  L 663.92 844.65
  A 0.40 0.40 0.0 0 1 663.54 844.38
  L 654.91 819.02
  A 0.40 0.40 0.0 0 0 654.53 818.75
  L 609.97 818.75
  A 0.40 0.40 0.0 0 0 609.59 819.02
  Z
  M 616.77 797.52
  A 0.38 0.38 0.0 0 0 617.13 798.02
  L 647.42 797.97
  A 0.38 0.38 0.0 0 0 647.78 797.47
  L 632.56 752.19
  A 0.38 0.38 0.0 0 0 631.84 752.20
  L 616.77 797.52
  Z"
/>
<path fill="#ffffff" d="
  M 815.48 831.39
  C 830.75 829.72 836.58 811.45 822.81 802.93
  Q 819.23 800.72 815.24 799.32
  Q 805.60 795.96 795.96 792.57
  C 782.68 787.88 769.57 781.68 764.43 768.52
  C 759.61 756.18 763.02 741.96 773.36 733.35
  C 787.18 721.84 807.85 719.70 825.01 723.90
  Q 841.72 728.00 852.53 736.73
  C 853.89 737.82 853.80 740.80 853.82 742.70
  Q 853.91 753.05 853.90 762.91
  Q 853.90 763.84 852.96 763.85
  L 835.78 763.90
  A 0.96 0.95 85.0 0 1 834.84 763.11
  Q 833.50 755.57 832.04 747.99
  C 831.86 747.08 831.20 746.16 830.26 745.74
  Q 816.32 739.64 802.00 741.98
  C 795.86 742.98 789.10 747.17 787.60 753.82
  C 785.07 765.06 797.64 770.74 806.00 773.55
  C 828.58 781.14 859.72 789.20 855.28 820.75
  C 850.79 852.66 807.34 854.83 784.99 847.07
  Q 771.71 842.46 763.58 834.16
  Q 762.15 832.69 762.29 829.25
  Q 762.75 818.67 762.54 807.82
  A 0.98 0.98 0.0 0 1 763.52 806.82
  L 781.25 806.78
  Q 781.83 806.78 781.93 807.35
  Q 783.90 818.66 784.16 821.98
  C 784.33 824.01 784.77 825.03 786.58 826.12
  C 795.07 831.26 805.88 832.44 815.48 831.39
  Z"
/>
<path fill="#ffffff" d="
  M 1296.55 755.28
  A 0.61 0.61 0.0 0 0 1297.16 755.89
  L 1312.19 755.89
  A 0.80 0.80 0.0 0 1 1312.99 756.69
  L 1312.99 773.01
  A 0.50 0.50 0.0 0 1 1312.49 773.51
  L 1297.49 773.51
  A 0.96 0.96 0.0 0 0 1296.53 774.46
  Q 1296.51 797.39 1296.52 820.25
  C 1296.52 831.76 1304.20 832.03 1313.19 830.33
  Q 1313.70 830.23 1313.76 830.75
  L 1315.76 847.99
  A 0.30 0.29 78.5 0 1 1315.55 848.31
  C 1298.47 853.41 1277.06 852.72 1272.44 831.10
  Q 1271.87 828.41 1271.80 822.34
  Q 1271.51 798.39 1271.48 774.51
  A 1.01 1.00 90.0 0 0 1270.48 773.50
  L 1258.26 773.51
  A 0.50 0.50 0.0 0 1 1257.76 773.01
  L 1257.85 756.33
  A 0.45 0.44 -89.3 0 1 1258.29 755.89
  L 1270.56 755.88
  A 0.95 0.94 0.0 0 0 1271.51 754.94
  L 1271.50 734.00
  A 0.76 0.75 -90.0 0 1 1272.25 733.24
  L 1295.74 733.24
  Q 1296.49 733.24 1296.49 733.99
  L 1296.55 755.28
  Z"
/>
<path fill="#ffffff" d="
  M 1218.22 840.04
  Q 1207.20 851.07 1192.51 851.00
  C 1179.65 850.93 1167.91 843.98 1164.69 831.01
  Q 1162.15 820.82 1165.55 813.04
  C 1173.63 794.61 1200.61 795.58 1216.82 795.73
  A 1.03 1.02 -87.3 0 0 1217.85 794.79
  C 1218.44 788.00 1218.36 779.04 1212.02 774.96
  C 1206.18 771.21 1198.31 772.29 1191.76 774.73
  C 1190.05 775.37 1189.46 775.50 1189.11 777.50
  Q 1188.42 781.42 1187.94 785.18
  A 0.68 0.67 3.3 0 1 1187.27 785.77
  L 1169.47 785.81
  Q 1169.03 785.81 1169.02 785.37
  Q 1168.73 776.75 1168.99 768.15
  C 1169.03 766.88 1168.46 765.56 1169.84 764.68
  C 1185.53 754.75 1206.44 750.31 1223.94 757.94
  Q 1237.37 763.79 1241.36 776.39
  Q 1242.96 781.46 1242.99 794.76
  Q 1243.02 813.09 1243.00 831.24
  A 1.95 1.94 -87.1 0 0 1244.74 833.18
  L 1249.94 833.74
  A 1.33 1.32 -87.1 0 1 1251.13 835.06
  L 1251.13 848.24
  A 0.87 0.87 0.0 0 1 1250.26 849.11
  L 1223.36 849.04
  A 2.28 2.28 0.0 0 1 1221.19 847.41
  L 1219.09 840.26
  Q 1218.84 839.42 1218.22 840.04
  Z
  M 1217.17 809.62
  C 1211.22 809.17 1203.51 808.74 1197.89 810.37
  C 1186.49 813.67 1184.90 831.27 1198.52 832.09
  Q 1207.98 832.67 1214.91 826.79
  C 1219.27 823.10 1218.05 815.49 1217.96 810.46
  A 0.86 0.85 1.8 0 0 1217.17 809.62
  Z"
/>
<path fill="#ffffff" d="
  M 893.20 809.92
  Q 892.48 809.92 892.52 810.64
  C 893.88 836.77 922.39 834.38 938.25 825.00
  A 1.03 1.02 -27.0 0 1 939.71 825.47
  L 945.91 839.55
  A 0.73 0.72 -28.9 0 1 945.65 840.44
  C 931.41 850.12 912.44 854.02 895.72 848.46
  C 871.58 840.42 865.06 819.22 866.83 795.75
  C 868.33 775.85 881.12 757.84 901.50 754.89
  C 925.53 751.42 945.22 764.35 947.69 789.26
  Q 948.70 799.39 948.08 809.16
  Q 948.04 809.94 947.26 809.94
  L 893.20 809.92
  Z
  M 893.46 793.56
  L 923.60 793.40
  A 0.29 0.29 0.0 0 0 923.89 793.11
  L 923.88 790.91
  A 17.41 14.88 89.7 0 0 908.91 773.58
  L 907.95 773.58
  A 17.41 14.88 89.7 0 0 893.16 791.07
  L 893.17 793.27
  A 0.29 0.29 0.0 0 0 893.46 793.56
  Z"
/>
<path fill="#ffffff" d="
  M 995.18 767.50
  Q 995.35 769.38 996.42 767.83
  Q 1006.99 752.60 1026.02 754.49
  C 1043.91 756.27 1050.90 770.02 1051.43 786.50
  Q 1052.13 808.62 1051.93 830.62
  A 1.04 1.04 0.0 0 0 1052.77 831.65
  L 1062.88 833.71
  A 1.41 1.41 0.0 0 1 1064.01 835.09
  L 1063.98 848.54
  A 0.52 0.51 0.0 0 1 1063.46 849.05
  L 1016.45 849.07
  Q 1015.83 849.07 1015.82 848.45
  L 1015.74 835.49
  A 1.94 1.92 83.5 0 1 1017.24 833.59
  L 1025.89 831.64
  A 0.88 0.88 0.0 0 0 1026.58 830.79
  Q 1026.69 809.86 1026.59 788.75
  C 1026.50 771.48 1007.67 770.03 997.57 779.30
  C 996.32 780.46 995.90 781.58 995.90 783.38
  Q 995.84 806.53 995.90 830.14
  A 1.68 1.67 6.8 0 0 997.19 831.77
  L 1005.45 833.76
  A 0.76 0.76 0.0 0 1 1006.03 834.50
  L 1006.03 848.42
  A 0.71 0.70 -90.0 0 1 1005.33 849.13
  L 959.21 849.04
  A 0.57 0.57 0.0 0 1 958.64 848.47
  L 958.52 835.14
  A 1.50 1.49 84.2 0 1 959.72 833.66
  L 970.09 831.57
  A 0.66 0.65 84.8 0 0 970.62 830.92
  L 970.63 774.38
  A 0.93 0.93 0.0 0 0 969.88 773.47
  L 958.05 771.23
  Q 957.48 771.12 957.48 770.54
  L 957.45 756.58
  A 0.72 0.72 0.0 0 1 958.17 755.86
  L 993.26 755.88
  Q 994.15 755.88 994.23 756.76
  L 995.18 767.50
  Z"
/>
<path fill="#ffffff" d="
  M 1380.43 840.48
  C 1377.89 842.68 1375.14 845.13 1372.29 846.65
  C 1356.84 854.93 1333.11 851.40 1327.41 832.50
  C 1320.98 811.16 1336.80 797.93 1356.51 796.34
  Q 1368.01 795.42 1379.56 795.82
  Q 1380.12 795.84 1380.15 795.28
  Q 1380.47 789.96 1379.92 784.89
  C 1378.35 770.55 1362.32 770.39 1352.62 775.45
  A 1.79 1.76 81.1 0 0 1351.68 776.76
  L 1350.27 785.29
  Q 1350.20 785.77 1349.71 785.77
  L 1331.51 785.77
  A 0.26 0.25 -90.0 0 1 1331.26 785.51
  L 1331.24 766.26
  Q 1331.24 765.47 1331.90 765.02
  C 1345.81 755.45 1364.11 751.60 1380.70 755.99
  C 1392.00 758.97 1400.63 765.72 1403.94 776.99
  Q 1405.33 781.73 1405.37 794.17
  C 1405.41 806.68 1405.00 819.34 1405.52 831.83
  A 1.40 1.38 -88.1 0 0 1406.75 833.16
  L 1412.63 833.83
  A 0.94 0.93 -87.2 0 1 1413.46 834.75
  L 1413.50 848.75
  A 0.38 0.37 90.0 0 1 1413.13 849.13
  L 1384.67 849.01
  A 0.78 0.75 -8.0 0 1 1383.93 848.47
  L 1381.64 840.83
  A 0.75 0.75 0.0 0 0 1380.43 840.48
  Z
  M 1379.76 809.52
  C 1370.29 809.00 1353.21 807.36 1351.25 820.76
  Q 1350.42 826.44 1354.29 829.53
  C 1360.33 834.37 1370.50 831.98 1376.29 827.73
  C 1378.21 826.32 1380.12 824.89 1380.11 822.76
  Q 1380.08 816.29 1380.25 810.05
  A 0.52 0.52 0.0 0 0 1379.76 809.52
  Z"
/>
<path fill="#ffffff" d="
  M 1126.76 825.62
  C 1128.97 816.13 1116.36 812.84 1109.93 811.45
  C 1093.68 807.94 1071.60 801.03 1075.20 779.23
  C 1079.28 754.53 1108.62 751.97 1127.75 756.03
  Q 1137.49 758.10 1145.86 763.41
  C 1147.32 764.33 1147.74 765.36 1147.73 767.00
  Q 1147.68 777.39 1147.90 787.55
  Q 1147.91 788.00 1147.46 788.00
  L 1132.04 787.98
  A 1.26 1.26 0.0 0 1 1130.81 786.99
  C 1129.86 782.69 1129.59 775.58 1124.63 773.76
  C 1118.73 771.60 1111.11 770.62 1105.20 773.20
  C 1100.91 775.08 1098.18 779.16 1099.23 783.86
  C 1100.39 789.03 1106.05 791.01 1111.04 792.30
  Q 1119.49 794.49 1128.00 796.52
  C 1143.06 800.10 1154.57 812.29 1150.63 828.53
  C 1147.61 840.94 1134.29 848.42 1122.24 850.05
  C 1106.16 852.23 1089.54 849.43 1076.80 838.88
  Q 1076.44 838.58 1076.43 838.10
  L 1076.18 818.42
  A 0.65 0.65 0.0 0 1 1076.83 817.76
  L 1093.00 817.75
  A 1.00 0.99 -7.6 0 1 1093.96 818.48
  Q 1095.32 823.36 1096.76 828.50
  C 1097.96 832.77 1107.67 833.74 1111.07 833.70
  C 1116.68 833.64 1125.19 832.34 1126.76 825.62
  Z"
/>
</svg>
