<?xml version="1.0" encoding="UTF-8" standalone="no"?>
<!DOCTYPE svg PUBLIC "-//W3C//DTD SVG 1.1//EN" "http://www.w3.org/Graphics/SVG/1.1/DTD/svg11.dtd">
<svg xmlns="http://www.w3.org/2000/svg" version="1.1" viewBox="0.00 0.00 60.00 60.00">
<path fill="#ffffff" d="
  M 633.12 580.05
  Q 631.96 579.14 630.91 580.19
  Q 579.59 631.44 530.20 680.70
  Q 526.31 684.59 523.53 686.35
  Q 519.29 689.04 513.56 686.62
  Q 506.89 683.81 505.56 677.27
  C 504.29 671.04 507.16 667.43 511.76 662.83
  Q 562.39 612.24 613.50 561.27
  A 0.56 0.55 -42.6 0 0 613.54 560.53
  Q 577.62 517.19 576.65 461.24
  C 575.62 401.89 610.32 346.79 662.63 320.37
  C 719.31 291.75 789.15 300.91 836.45 343.10
  C 911.35 409.93 905.02 528.86 823.26 587.31
  C 801.49 602.88 774.78 613.07 748.75 615.31
  C 719.25 617.85 690.40 612.95 665.30 600.93
  Q 657.14 597.02 645.48 589.48
  C 641.23 586.74 637.12 583.20 633.12 580.05
  Z
  M 742.94 330.41
  Q 738.71 329.59 735.48 329.54
  C 686.54 328.75 641.48 354.10 618.17 397.37
  C 586.85 455.50 602.91 526.71 656.35 565.83
  C 665.65 572.64 672.41 575.81 681.33 579.81
  C 700.36 588.36 722.99 592.18 743.74 590.25
  Q 789.80 585.96 823.12 554.37
  C 853.28 525.78 867.39 484.45 862.33 443.62
  C 858.63 413.73 844.29 384.72 821.81 364.34
  Q 817.52 360.45 821.08 365.01
  Q 833.78 381.26 835.90 404.00
  Q 839.07 437.91 818.32 464.28
  C 799.71 487.92 768.28 499.75 738.21 494.14
  C 700.98 487.20 672.58 455.14 671.11 417.13
  Q 670.76 408.25 671.11 404.86
  C 674.75 369.55 700.27 339.59 734.72 331.93
  C 737.22 331.37 740.16 331.20 742.93 330.81
  Q 744.14 330.64 742.94 330.41
  Z"
/>
<path fill="#ffffff" d="
  M 271.16 755.26
  L 288.64 755.27
  A 0.62 0.62 0.0 0 1 289.26 755.89
  L 289.26 772.50
  A 0.77 0.76 -89.6 0 1 288.50 773.26
  L 271.21 773.25
  A 0.80 0.80 0.0 0 0 270.41 774.04
  L 270.36 831.88
  A 0.40 0.40 0.0 0 0 270.67 832.27
  L 281.96 834.68
  A 1.04 1.04 0.0 0 1 282.78 835.70
  L 282.79 849.59
  A 0.62 0.62 0.0 0 1 282.16 850.21
  L 233.30 850.16
  Q 232.44 850.16 232.45 849.30
  L 232.51 835.26
  Q 232.51 834.78 232.99 834.68
  L 243.98 832.46
  A 0.98 0.97 -5.8 0 0 244.76 831.51
  L 244.75 774.59
  Q 244.75 773.19 243.34 773.19
  L 231.41 773.27
  Q 230.79 773.28 230.78 772.66
  L 230.57 755.86
  Q 230.56 755.29 231.13 755.29
  L 243.87 755.27
  A 0.86 0.86 0.0 0 0 244.73 754.42
  Q 244.74 749.16 244.79 744.01
  C 245.07 716.13 268.89 707.60 292.55 712.97
  Q 294.01 713.30 293.82 714.78
  L 291.70 731.74
  Q 291.61 732.51 290.84 732.36
  C 271.01 728.41 269.42 738.84 270.59 754.73
  Q 270.63 755.26 271.16 755.26
  Z"
/>
<path fill="#ffffff" d="
  M 153.75 851.42
  C 134.52 849.20 119.52 836.55 111.34 819.47
  C 103.79 803.73 103.12 783.91 106.72 767.00
  Q 109.48 754.01 117.25 743.23
  C 129.15 726.73 146.46 719.56 166.81 720.84
  C 197.48 722.77 217.12 747.42 220.02 776.71
  C 224.14 818.40 200.59 856.81 153.75 851.42
  Z
  M 152.76 741.85
  C 129.07 747.93 128.59 784.48 131.71 802.61
  C 135.38 823.91 150.96 837.37 173.04 830.43
  C 194.52 823.69 196.41 792.52 194.33 774.74
  C 191.71 752.34 177.27 735.57 152.76 741.85
  Z"
/>
<path fill="#ffffff" d="
  M 751.64 744.90
  C 740.12 739.87 709.70 735.09 707.92 755.25
  C 706.89 766.79 721.82 771.66 730.27 774.36
  C 753.38 781.76 780.65 790.29 777.14 821.63
  C 774.86 842.02 753.51 850.90 735.76 851.89
  C 716.29 852.98 697.02 847.97 683.14 834.39
  A 2.05 2.02 22.8 0 1 682.54 832.95
  L 682.56 808.21
  A 0.98 0.98 0.0 0 1 683.54 807.23
  L 701.48 807.23
  A 1.14 1.14 0.0 0 1 702.61 808.22
  Q 703.59 816.24 704.83 824.23
  Q 705.04 825.53 706.89 826.57
  Q 722.54 835.36 738.99 831.67
  C 754.45 828.20 756.34 809.56 742.84 802.37
  C 734.09 797.70 724.24 795.54 714.95 792.19
  C 696.52 785.55 679.45 774.24 682.72 751.49
  C 685.45 732.46 704.47 722.85 722.26 721.11
  C 739.94 719.39 761.91 724.13 775.17 736.82
  Q 775.85 737.47 775.83 738.75
  Q 775.63 750.73 775.84 762.67
  A 0.58 0.58 0.0 0 1 775.26 763.26
  L 757.23 763.25
  A 0.98 0.97 -4.5 0 1 756.26 762.43
  Q 755.00 754.55 753.27 746.74
  Q 753.00 745.50 751.64 744.90
  Z"
/>
<path fill="#ffffff" d="
  M 481.75 754.50
  L 481.73 732.68
  Q 481.73 732.09 482.32 732.09
  L 506.93 732.09
  A 0.34 0.34 0.0 0 1 507.27 732.43
  L 507.25 754.00
  Q 507.25 755.24 508.50 755.24
  L 523.00 755.27
  Q 523.98 755.27 523.98 756.25
  L 523.99 772.64
  A 0.62 0.62 0.0 0 1 523.36 773.26
  L 508.44 773.23
  A 1.17 1.17 0.0 0 0 507.27 774.40
  Q 507.26 797.93 507.30 821.25
  C 507.32 832.97 514.58 832.73 523.76 831.17
  A 0.96 0.96 0.0 0 1 524.88 832.01
  L 526.67 848.76
  Q 526.75 849.57 525.97 849.78
  Q 516.00 852.42 505.28 851.71
  C 487.44 850.53 481.77 837.21 481.75 821.45
  Q 481.73 797.60 481.74 773.98
  A 0.74 0.74 0.0 0 0 480.99 773.23
  L 468.46 773.26
  Q 467.66 773.26 467.65 772.46
  L 467.52 756.11
  A 0.87 0.87 0.0 0 1 468.39 755.23
  L 481.00 755.26
  Q 481.75 755.26 481.75 754.50
  Z"
/>
<path fill="#ffffff" d="
  M 1227.49 755.23
  L 1243.14 755.29
  A 0.35 0.35 0.0 0 1 1243.49 755.64
  L 1243.56 772.60
  A 0.66 0.66 0.0 0 1 1242.90 773.26
  L 1227.98 773.24
  A 1.03 1.03 0.0 0 0 1226.95 774.26
  Q 1226.78 798.77 1226.95 822.99
  C 1227.03 834.13 1236.96 831.74 1243.84 831.17
  Q 1244.48 831.12 1244.55 831.75
  L 1246.40 848.69
  A 1.12 1.12 0.0 0 1 1245.52 849.91
  C 1222.56 854.79 1201.60 851.96 1201.50 822.91
  Q 1201.42 798.84 1201.50 774.48
  A 1.23 1.22 -90.0 0 0 1200.28 773.25
  L 1187.89 773.26
  A 0.61 0.61 0.0 0 1 1187.28 772.64
  L 1187.40 755.66
  A 0.44 0.43 -0.0 0 1 1187.84 755.23
  L 1200.98 755.25
  A 0.48 0.47 -90.0 0 0 1201.45 754.77
  L 1201.34 732.55
  Q 1201.34 732.06 1201.83 732.06
  L 1226.12 732.09
  A 0.78 0.78 0.0 0 1 1226.90 732.87
  L 1226.88 754.62
  Q 1226.88 755.23 1227.49 755.23
  Z"
/>
<path fill="#ffffff" d="
  M 324.98 811.48
  Q 325.32 819.24 330.51 825.75
  C 339.59 837.13 360.75 831.97 371.31 825.99
  A 1.41 1.40 64.0 0 1 373.30 826.68
  Q 375.80 832.65 378.68 839.01
  Q 379.80 841.47 377.68 842.72
  Q 360.82 852.63 341.91 851.89
  C 305.80 850.47 293.24 819.09 300.08 787.52
  C 304.92 765.21 323.05 751.30 346.19 753.64
  C 362.63 755.30 374.81 764.32 379.53 780.76
  C 382.23 790.15 381.84 800.19 381.61 809.81
  A 0.59 0.59 0.0 0 1 381.02 810.38
  L 326.01 810.39
  Q 324.93 810.39 324.98 811.48
  Z
  M 326.09 793.50
  L 356.29 793.44
  A 0.64 0.64 0.0 0 0 356.93 792.80
  L 356.92 791.67
  A 18.41 14.44 89.9 0 0 342.45 773.29
  L 339.85 773.29
  A 18.41 14.44 89.9 0 0 325.44 791.73
  L 325.45 792.86
  A 0.64 0.64 0.0 0 0 326.09 793.50
  Z"
/>
<path fill="#ffffff" d="
  M 432.71 767.47
  Q 432.80 768.63 433.44 767.66
  Q 434.84 765.52 436.50 763.17
  Q 445.50 750.45 460.68 754.31
  Q 461.63 754.55 461.52 755.52
  L 459.08 776.96
  A 0.92 0.92 0.0 0 1 458.15 777.78
  Q 451.92 777.68 446.76 777.79
  C 441.08 777.90 433.51 781.47 433.50 788.02
  Q 433.47 809.86 433.51 831.70
  Q 433.51 832.25 434.05 832.37
  L 444.54 834.55
  A 1.54 1.53 6.1 0 1 445.76 836.05
  L 445.72 849.74
  A 0.46 0.46 0.0 0 1 445.26 850.20
  L 396.48 850.18
  A 0.95 0.94 0.3 0 1 395.53 849.23
  L 395.56 835.63
  A 0.99 0.98 84.3 0 1 396.34 834.66
  L 407.29 832.37
  A 0.58 0.58 0.0 0 0 407.75 831.80
  L 407.76 774.00
  A 0.67 0.66 5.9 0 0 407.23 773.35
  L 394.85 770.77
  Q 394.31 770.66 394.30 770.10
  L 394.22 755.60
  A 0.35 0.35 0.0 0 1 394.57 755.25
  L 430.51 755.25
  Q 431.79 755.25 431.88 756.52
  L 432.71 767.47
  Z"
/>
<path fill="#ffffff" d="
  M 593.55 841.07
  Q 591.48 842.49 589.45 844.19
  Q 585.61 847.40 581.11 849.36
  C 571.76 853.43 557.81 852.79 549.23 847.13
  Q 536.94 839.04 537.62 822.50
  C 538.78 794.53 573.12 795.86 592.12 795.86
  A 0.65 0.65 0.0 0 0 592.77 795.21
  C 592.83 786.05 593.95 775.38 582.20 773.05
  Q 573.03 771.22 565.30 774.54
  C 562.68 775.67 562.47 782.53 562.24 785.06
  A 0.77 0.76 -87.5 0 1 561.48 785.76
  L 543.04 785.75
  A 0.46 0.46 0.0 0 1 542.58 785.29
  L 542.75 765.41
  A 1.23 1.21 74.4 0 1 543.31 764.40
  Q 553.20 757.96 565.02 755.12
  C 586.90 749.87 617.72 756.99 618.11 785.00
  Q 618.44 808.54 618.51 832.36
  Q 618.51 833.89 620.02 834.04
  L 625.15 834.56
  A 1.35 1.34 -87.4 0 1 626.36 835.89
  L 626.44 849.81
  A 0.38 0.37 -0.7 0 1 626.06 850.19
  L 597.21 850.18
  A 0.81 0.80 81.8 0 1 596.44 849.60
  L 594.00 841.24
  A 0.30 0.29 65.4 0 0 593.55 841.07
  Z
  M 592.02 809.85
  Q 584.43 809.82 577.00 810.09
  C 559.26 810.73 557.33 834.98 576.75 832.98
  C 581.64 832.48 592.79 828.43 592.75 822.25
  Q 592.71 816.27 592.70 810.52
  A 0.68 0.67 0.0 0 0 592.02 809.85
  Z"
/>
<path fill="#ffffff" d="
  M 814.98 810.88
  Q 815.17 820.05 821.59 826.69
  C 829.84 835.23 845.33 833.01 855.12 828.80
  Q 858.49 827.36 861.76 825.88
  A 1.01 1.01 0.0 0 1 863.10 826.39
  L 869.34 840.50
  Q 869.54 840.97 869.15 841.29
  C 859.43 849.35 843.28 852.48 831.00 851.80
  Q 809.99 850.62 798.30 836.00
  C 792.43 828.64 789.08 819.17 788.55 809.75
  C 787.69 794.57 789.72 779.34 800.04 767.23
  Q 812.95 752.09 834.73 753.57
  Q 861.22 755.37 869.50 780.23
  C 872.24 788.48 871.86 800.42 871.53 809.42
  Q 871.50 810.37 870.54 810.37
  L 815.50 810.35
  Q 814.97 810.35 814.98 810.88
  Z
  M 816.16 793.55
  L 846.28 793.39
  A 0.67 0.67 0.0 0 0 846.95 792.72
  L 846.94 791.47
  A 18.24 14.60 89.7 0 0 832.25 773.30
  L 829.99 773.32
  A 18.24 14.60 89.7 0 0 815.48 791.63
  L 815.49 792.88
  A 0.67 0.67 0.0 0 0 816.16 793.55
  Z"
/>
<path fill="#ffffff" d="
  M 894.50 831.72
  L 894.50 774.04
  A 0.88 0.87 -84.9 0 0 893.79 773.18
  L 881.75 770.89
  A 0.92 0.91 -85.0 0 1 881.01 770.00
  L 880.93 756.16
  A 0.92 0.92 0.0 0 1 881.85 755.23
  L 917.51 755.24
  A 1.08 1.08 0.0 0 1 918.59 756.26
  L 919.23 766.99
  Q 919.34 768.73 920.42 767.37
  C 930.51 754.69 944.13 750.14 959.64 755.83
  C 973.86 761.05 977.17 777.32 977.20 790.50
  Q 977.26 811.22 977.27 831.86
  A 0.57 0.56 -84.5 0 0 977.72 832.42
  L 988.42 834.51
  A 1.43 1.43 0.0 0 1 989.57 835.91
  L 989.55 849.32
  Q 989.54 850.18 988.68 850.18
  L 941.11 850.19
  A 0.58 0.57 0.5 0 1 940.53 849.61
  L 940.67 835.58
  Q 940.68 834.80 941.43 834.63
  L 951.01 832.35
  A 0.71 0.71 0.0 0 0 951.56 831.66
  Q 951.49 810.49 951.33 789.25
  C 951.28 782.58 949.41 776.45 942.55 774.49
  Q 930.06 770.92 921.09 779.80
  Q 919.99 780.89 920.00 783.50
  Q 920.07 807.78 920.23 831.82
  Q 920.24 832.37 920.78 832.49
  L 929.52 834.41
  A 1.35 1.34 -83.7 0 1 930.58 835.74
  L 930.48 849.74
  A 0.47 0.47 0.0 0 1 930.01 850.20
  L 882.72 850.19
  A 0.48 0.47 89.4 0 1 882.25 849.72
  L 882.19 835.73
  Q 882.18 834.87 883.02 834.69
  L 894.03 832.30
  Q 894.50 832.20 894.50 831.72
  Z"
/>
<path fill="#ffffff" d="
  M 1025.73 779.28
  C 1022.27 790.76 1040.87 793.56 1047.99 794.75
  Q 1052.76 795.55 1058.48 797.88
  C 1066.18 801.02 1072.10 804.07 1075.90 810.90
  C 1081.38 820.75 1079.10 833.51 1071.06 841.29
  C 1061.45 850.59 1045.74 853.01 1031.99 851.55
  Q 1015.42 849.79 1003.21 840.27
  Q 1002.35 839.60 1002.40 838.05
  C 1002.59 831.67 1002.18 825.28 1002.38 818.87
  Q 1002.40 818.31 1002.95 818.32
  L 1019.29 818.41
  A 1.20 1.19 -7.4 0 1 1020.43 819.28
  Q 1021.74 824.02 1023.13 828.92
  C 1024.97 835.40 1039.92 834.65 1044.76 833.75
  C 1053.18 832.16 1057.26 824.37 1050.77 817.26
  Q 1049.39 815.74 1044.10 813.95
  C 1031.88 809.81 1015.82 808.83 1006.59 798.56
  C 998.42 789.46 999.37 774.94 1007.36 765.84
  C 1022.65 748.42 1054.88 751.36 1073.00 762.79
  Q 1074.14 763.50 1074.86 764.28
  Q 1075.20 764.65 1075.21 765.16
  L 1075.43 787.11
  Q 1075.43 787.91 1074.64 787.90
  L 1058.92 787.82
  Q 1058.33 787.82 1058.17 787.26
  C 1057.15 783.83 1056.58 776.28 1053.42 774.55
  C 1045.97 770.48 1029.08 768.15 1025.73 779.28
  Z"
/>
<path fill="#ffffff" d="
  M 1147.89 841.50
  Q 1147.60 840.48 1146.84 841.23
  C 1141.45 846.58 1135.26 850.18 1127.66 851.42
  C 1111.68 854.02 1094.97 847.64 1091.80 830.02
  C 1087.55 806.41 1107.02 796.82 1126.76 796.14
  Q 1136.00 795.82 1145.52 795.95
  A 0.97 0.96 -1.4 0 0 1146.50 794.93
  C 1145.88 785.16 1147.92 774.62 1134.74 772.65
  Q 1126.74 771.45 1119.33 774.56
  C 1116.05 775.93 1116.39 782.15 1116.06 785.24
  Q 1116.01 785.75 1115.49 785.75
  L 1096.97 785.78
  A 0.56 0.56 0.0 0 1 1096.41 785.22
  L 1096.52 765.47
  A 1.20 1.19 -16.7 0 1 1097.05 764.50
  C 1113.50 753.41 1135.35 749.66 1153.94 757.83
  Q 1171.73 765.64 1171.81 786.24
  Q 1171.91 809.37 1172.25 832.40
  Q 1172.27 833.88 1173.74 834.05
  L 1179.25 834.70
  A 1.05 1.04 -86.9 0 1 1180.18 835.74
  L 1180.19 849.62
  A 0.56 0.56 0.0 0 1 1179.63 850.18
  L 1150.92 850.18
  A 0.75 0.75 0.0 0 1 1150.20 849.63
  L 1147.89 841.50
  Z
  M 1129.39 810.31
  Q 1122.44 810.83 1118.85 815.86
  C 1113.79 822.94 1117.56 832.54 1126.75 833.04
  C 1132.91 833.37 1146.25 830.05 1146.33 822.00
  Q 1146.38 816.12 1146.31 810.35
  A 0.51 0.51 0.0 0 0 1145.81 809.85
  Q 1137.49 809.71 1129.39 810.31
  Z"
/>
<path fill="#ffffff" d="
  M 1313.64 841.01
  Q 1313.52 840.57 1313.20 840.89
  Q 1296.87 856.86 1274.34 849.89
  C 1258.35 844.95 1252.02 823.05 1261.24 809.66
  C 1271.71 794.46 1295.31 795.92 1311.15 795.92
  Q 1312.40 795.92 1312.36 794.68
  Q 1312.24 789.96 1311.92 784.52
  C 1311.09 770.21 1294.57 770.76 1285.09 774.61
  C 1283.60 775.21 1283.14 776.06 1282.95 777.71
  Q 1282.52 781.54 1281.77 785.31
  Q 1281.69 785.72 1281.26 785.73
  L 1262.98 785.87
  A 0.68 0.68 0.0 0 1 1262.30 785.18
  Q 1262.45 776.38 1262.35 767.25
  Q 1262.34 766.04 1262.73 764.86
  Q 1262.89 764.40 1263.30 764.14
  C 1280.14 753.49 1303.14 748.96 1321.64 758.77
  C 1332.76 764.66 1337.70 774.06 1337.86 786.76
  Q 1338.13 808.06 1337.98 831.97
  Q 1337.97 833.79 1339.79 834.01
  L 1345.11 834.65
  A 1.19 1.18 -86.5 0 1 1346.16 835.84
  L 1346.04 849.88
  A 0.30 0.29 -89.0 0 1 1345.75 850.17
  L 1316.87 850.19
  Q 1316.16 850.19 1315.97 849.50
  L 1313.64 841.01
  Z
  M 1300.16 832.29
  C 1304.85 831.16 1312.26 827.53 1312.26 821.75
  Q 1312.27 816.01 1312.30 810.34
  Q 1312.30 809.91 1311.87 809.89
  Q 1304.32 809.61 1296.74 809.93
  C 1277.67 810.72 1277.04 837.88 1300.16 832.29
  Z"
/>
</svg>
