<?xml version="1.0" encoding="UTF-8" standalone="no"?>
<!DOCTYPE svg PUBLIC "-//W3C//DTD SVG 1.1//EN" "http://www.w3.org/Graphics/SVG/1.1/DTD/svg11.dtd">
<svg xmlns="http://www.w3.org/2000/svg" version="1.1" viewBox="0.00 0.00 120.00 64.00">
<path fill="#fefeff" d="
  M 54.67 26.14
  L 46.65 34.16
  Q 45.79 35.03 44.82 34.26
  L 44.58 34.07
  A 0.94 0.94 0.0 0 1 44.50 32.67
  L 52.85 24.30
  Q 53.27 23.88 52.92 23.41
  C 48.04 16.63 51.30 7.68 58.84 5.10
  C 66.53 2.47 74.57 8.66 74.54 16.50
  C 74.49 26.30 63.48 31.52 55.49 26.06
  Q 55.05 25.76 54.67 26.14
  Z
  M 53.38 14.88
  C 52.01 23.23 61.51 29.07 68.19 23.92
  C 71.90 21.06 73.42 14.80 69.98 10.78
  Q 69.55 10.28 69.59 10.94
  C 70.12 21.65 55.00 18.85 59.21 9.18
  A 1.53 1.53 0.0 0 1 59.88 8.45
  Q 60.39 8.16 60.73 7.70
  Q 61.09 7.20 60.49 7.35
  Q 54.36 8.91 53.38 14.88
  Z"
/>
<path fill="#fefeff" d="
  M 12.15 47.40
  A 3.95 3.95 0.0 0 1 8.20 51.35
  L 7.54 51.35
  A 3.95 3.95 0.0 0 1 3.59 47.40
  L 3.59 44.82
  A 3.95 3.95 0.0 0 1 7.54 40.87
  L 8.20 40.87
  A 3.95 3.95 0.0 0 1 12.15 44.82
  L 12.15 47.40
  Z
  M 7.8921 49.7799
  A 3.68 2.38 89.5 0 0 10.2399 46.0792
  A 3.68 2.38 89.5 0 0 7.8279 42.4201
  A 3.68 2.38 89.5 0 0 5.4801 46.1208
  A 3.68 2.38 89.5 0 0 7.8921 49.7799
  Z"
/>
<path fill="#fefeff" d="
  M 16.24 45.39
  L 19.82 45.39
  A 0.33 0.33 0.0 0 1 20.15 45.74
  L 20.08 46.76
  A 0.33 0.33 0.0 0 1 19.75 47.07
  L 16.25 47.05
  A 0.33 0.33 0.0 0 0 15.92 47.39
  L 15.98 50.92
  A 0.33 0.33 0.0 0 1 15.65 51.26
  L 14.19 51.25
  A 0.33 0.33 0.0 0 1 13.86 50.92
  L 13.87 41.24
  A 0.33 0.33 0.0 0 1 14.20 40.91
  L 20.21 40.88
  A 0.33 0.33 0.0 0 1 20.54 41.22
  L 20.50 42.33
  A 0.33 0.33 0.0 0 1 20.16 42.65
  L 16.26 42.56
  A 0.33 0.33 0.0 0 0 15.92 42.89
  L 15.91 45.06
  A 0.33 0.33 0.0 0 0 16.24 45.39
  Z"
/>
<path fill="#fefeff" d="
  M 23.92 42.89
  L 23.86 44.90
  A 0.32 0.32 0.0 0 0 24.18 45.23
  L 27.70 45.21
  A 0.32 0.32 0.0 0 1 28.02 45.46
  L 28.22 46.38
  A 0.32 0.32 0.0 0 1 27.91 46.77
  L 24.23 46.77
  A 0.32 0.32 0.0 0 0 23.91 47.09
  L 23.91 49.25
  A 0.32 0.32 0.0 0 0 24.23 49.57
  L 28.43 49.59
  A 0.32 0.32 0.0 0 1 28.74 49.90
  L 28.76 50.93
  A 0.32 0.32 0.0 0 1 28.44 51.25
  L 22.18 51.26
  A 0.32 0.32 0.0 0 1 21.86 50.94
  L 21.90 41.21
  A 0.32 0.32 0.0 0 1 22.22 40.89
  L 28.42 40.88
  A 0.32 0.32 0.0 0 1 28.74 41.19
  L 28.79 42.28
  A 0.32 0.32 0.0 0 1 28.46 42.62
  L 24.24 42.58
  A 0.32 0.32 0.0 0 0 23.92 42.89
  Z"
/>
<path fill="#fefeff" d="
  M 32.10 48.81
  Q 32.01 49.34 32.16 50.84
  Q 32.20 51.24 31.79 51.25
  L 30.44 51.26
  Q 30.11 51.26 30.11 50.94
  L 30.13 41.52
  Q 30.13 40.99 30.66 40.96
  C 33.93 40.74 39.33 40.78 37.32 45.59
  Q 37.12 46.08 36.72 46.42
  L 36.37 46.72
  Q 35.91 47.12 36.20 47.66
  L 38.04 51.07
  Q 38.13 51.23 37.94 51.24
  L 36.02 51.26
  A 0.35 0.33 -12.1 0 1 35.71 51.07
  L 34.38 48.39
  Q 32.78 45.16 32.10 48.81
  Z
  M 32.12 43.05
  L 32.16 45.35
  A 0.45 0.45 0.0 0 0 32.61 45.80
  L 34.16 45.78
  A 1.44 1.42 -0.8 0 0 35.58 44.34
  L 35.58 43.98
  A 1.44 1.42 -0.8 0 0 34.12 42.58
  L 32.57 42.60
  A 0.45 0.45 0.0 0 0 32.12 43.05
  Z"
/>
<path fill="#fefeff" d="
  M 43.93 42.88
  L 43.99 50.93
  A 0.34 0.34 0.0 0 1 43.65 51.27
  L 42.20 51.26
  A 0.34 0.34 0.0 0 1 41.86 50.92
  L 41.90 42.92
  A 0.34 0.34 0.0 0 0 41.55 42.58
  L 39.07 42.63
  A 0.34 0.34 0.0 0 1 38.72 42.28
  L 38.75 41.26
  A 0.34 0.34 0.0 0 1 39.09 40.93
  L 46.80 40.86
  A 0.34 0.34 0.0 0 1 47.15 41.20
  L 47.16 42.31
  A 0.34 0.34 0.0 0 1 46.81 42.65
  L 44.29 42.54
  A 0.34 0.34 0.0 0 0 43.93 42.88
  Z"
/>
<path fill="#fefeff" d="
  M 50.32 49.54
  L 50.09 50.71
  A 0.68 0.68 0.0 0 1 49.42 51.27
  L 48.19 51.25
  Q 47.59 51.25 47.80 50.69
  L 51.24 41.41
  A 0.83 0.82 11.7 0 1 52.07 40.87
  L 52.75 40.91
  Q 53.34 40.95 53.55 41.50
  L 57.06 50.78
  Q 57.24 51.26 56.73 51.26
  L 55.28 51.25
  Q 54.80 51.25 54.79 50.78
  Q 54.77 50.08 54.42 49.48
  A 0.89 0.89 0.0 0 0 53.49 49.04
  Q 52.26 49.25 51.03 49.04
  Q 50.43 48.94 50.32 49.54
  Z
  M 52.72 44.35
  A 0.32 0.32 0.0 0 0 52.11 44.35
  L 51.22 47.08
  A 0.32 0.32 0.0 0 0 51.53 47.50
  L 53.30 47.46
  A 0.32 0.32 0.0 0 0 53.60 47.04
  L 52.72 44.35
  Z"
/>
<path fill="#fefeff" d="
  M 65.34 43.45
  A 0.93 0.93 0.0 0 0 65.69 45.02
  C 67.66 45.66 70.88 46.39 70.87 48.96
  C 70.86 52.46 66.04 52.07 63.89 50.92
  A 1.67 1.67 0.0 0 1 63.51 48.25
  Q 63.73 48.04 64.42 48.33
  Q 64.86 48.52 64.92 48.99
  Q 64.94 49.12 64.96 49.26
  Q 65.01 49.66 65.37 49.86
  Q 66.81 50.66 67.08 50.55
  Q 71.15 48.76 66.94 47.33
  C 65.17 46.74 62.90 45.96 63.27 43.72
  C 63.88 40.03 71.92 40.22 70.50 44.56
  A 0.50 0.50 0.0 0 1 69.57 44.63
  L 68.99 43.44
  A 1.13 1.09 86.0 0 0 68.38 42.89
  Q 66.62 42.25 65.34 43.45
  Z"
/>
<path fill="#fefeff" d="
  M 107.44 46.08
  L 107.48 49.54
  A 0.59 0.59 0.0 0 0 108.03 50.13
  Q 108.70 50.18 109.00 50.76
  Q 109.31 51.36 108.68 51.59
  C 104.62 53.06 105.51 48.08 105.45 46.09
  Q 105.43 45.61 104.98 45.44
  L 104.61 45.31
  Q 103.93 45.06 104.33 44.45
  Q 104.57 44.08 105.01 43.92
  A 0.73 0.72 80.1 0 0 105.50 43.22
  L 105.49 42.51
  Q 105.48 42.00 105.99 42.03
  L 107.06 42.09
  Q 107.52 42.11 107.47 42.56
  L 107.39 43.25
  Q 107.31 43.91 107.98 43.91
  Q 108.53 43.91 108.77 44.36
  Q 109.02 44.82 108.66 45.21
  Q 108.36 45.52 107.97 45.53
  Q 107.44 45.55 107.44 46.08
  Z"
/>
<path fill="#fefeff" d="
  M 74.46 48.45
  Q 73.80 48.45 74.08 49.04
  L 74.29 49.47
  Q 74.64 50.21 75.46 50.25
  Q 76.64 50.30 77.74 49.85
  A 0.31 0.31 0.0 0 1 78.16 50.10
  L 78.21 50.48
  A 0.82 0.81 -16.9 0 1 77.76 51.31
  C 75.10 52.64 71.76 51.22 71.75 48.11
  C 71.73 42.31 79.23 42.59 78.48 47.86
  Q 78.39 48.49 77.76 48.48
  L 74.46 48.45
  Z
  M 76.02 47.15
  Q 76.47 47.12 76.49 46.68
  Q 76.56 45.50 75.27 45.57
  Q 74.11 45.63 73.99 46.57
  Q 73.91 47.25 74.58 47.21
  L 76.02 47.15
  Z"
/>
<path fill="#fefeff" d="
  M 83.25 44.23
  Q 84.13 43.81 85.12 43.86
  A 2.07 2.07 0.0 0 1 87.08 45.86
  L 87.18 49.39
  Q 87.19 49.77 87.40 50.08
  L 88.03 50.96
  Q 88.43 51.54 87.73 51.64
  Q 85.92 51.88 84.17 51.49
  A 0.38 0.38 0.0 0 1 84.10 50.77
  Q 84.42 50.63 84.62 50.37
  Q 85.06 49.81 85.06 49.50
  L 85.01 46.27
  A 0.77 0.77 0.0 0 0 84.45 45.53
  Q 83.13 45.16 82.80 46.15
  Q 81.92 48.77 83.15 50.99
  Q 83.44 51.51 82.85 51.62
  Q 81.26 51.91 79.66 51.49
  A 0.41 0.41 0.0 0 1 79.53 50.76
  L 80.00 50.43
  Q 80.49 50.09 80.49 49.49
  L 80.46 46.02
  Q 80.46 45.53 80.01 45.35
  Q 79.50 45.14 79.38 44.60
  Q 79.25 44.08 79.78 44.00
  Q 81.15 43.78 82.42 44.26
  Q 82.84 44.42 83.25 44.23
  Z"
/>
<path fill="#fefeff" d="
  M 93.12 50.12
  Q 93.69 49.79 93.20 49.06
  Q 92.96 48.71 92.53 48.67
  Q 90.57 48.50 89.30 47.08
  A 1.05 1.05 0.0 0 1 89.08 46.08
  C 89.81 43.64 92.10 43.43 94.16 44.11
  Q 95.23 44.47 95.04 46.20
  A 0.51 0.50 12.8 0 1 94.37 46.62
  Q 93.72 46.40 93.38 45.77
  Q 93.14 45.32 92.63 45.23
  Q 91.86 45.10 91.29 45.61
  A 0.75 0.74 31.9 0 0 91.59 46.88
  L 94.20 47.61
  A 1.77 1.77 0.0 0 1 95.22 50.26
  Q 93.56 52.86 90.14 51.31
  Q 88.89 50.75 89.08 50.13
  Q 89.88 47.56 90.93 50.03
  Q 91.40 51.14 93.12 50.12
  Z"
/>
<path fill="#fefeff" d="
  M 100.45 47.25
  A 0.76 0.75 -27.0 0 0 100.88 45.93
  Q 99.20 44.46 97.89 46.45
  A 0.53 0.53 0.0 0 1 96.91 46.18
  L 96.87 45.25
  A 0.96 0.95 -12.9 0 1 97.45 44.33
  C 104.08 41.48 102.34 48.02 103.60 51.01
  Q 103.84 51.60 103.21 51.69
  Q 102.08 51.84 101.05 51.39
  Q 100.61 51.20 100.19 51.41
  C 96.48 53.29 94.74 47.75 98.75 47.40
  Q 99.79 47.31 100.45 47.25
  Z
  M 101.0731 48.9587
  A 1.34 0.96 -15.2 0 0 99.5283 48.3836
  A 1.34 0.96 -15.2 0 0 98.4869 49.6613
  A 1.34 0.96 -15.2 0 0 100.0317 50.2364
  A 1.34 0.96 -15.2 0 0 101.0731 48.9587
  Z"
/>
<path fill="#fefeff" d="
  M 113.76 47.31
  A 0.56 0.56 0.0 0 0 114.41 46.69
  L 114.36 46.22
  A 1.06 1.05 87.4 0 0 113.35 45.29
  Q 112.18 45.25 111.57 46.35
  A 0.52 0.52 0.0 0 1 110.74 46.45
  Q 110.37 46.06 110.38 45.45
  A 1.40 1.38 -9.7 0 1 111.29 44.18
  Q 113.61 43.31 115.65 44.56
  Q 116.14 44.86 116.22 45.43
  Q 116.50 47.37 116.38 49.30
  C 116.35 49.93 116.53 50.28 116.97 50.64
  Q 117.34 50.95 117.08 51.36
  Q 116.86 51.72 116.24 51.73
  Q 115.53 51.73 114.89 51.43
  Q 114.44 51.22 113.97 51.41
  C 108.92 53.46 108.36 46.44 113.76 47.31
  Z
  M 114.46 49.23
  A 0.61 0.61 0.0 0 0 114.03 48.44
  Q 113.32 48.26 113.01 48.38
  Q 110.50 49.40 113.01 50.43
  Q 113.92 50.81 114.46 49.23
  Z"
/>
</svg>
