<?xml version="1.0" encoding="UTF-8" standalone="no"?>
<!DOCTYPE svg PUBLIC "-//W3C//DTD SVG 1.1//EN" "http://www.w3.org/Graphics/SVG/1.1/DTD/svg11.dtd">
<svg xmlns="http://www.w3.org/2000/svg" version="1.1" viewBox="0.00 0.00 1448.00 1448.00">
<path fill="#000000" d="
  M 629.65 771.21
  Q 551.32 849.65 472.78 927.88
  Q 466.13 934.51 462.21 936.32
  C 437.80 947.62 415.66 915.65 434.77 896.50
  Q 514.74 816.36 594.70 736.29
  Q 595.12 735.87 594.75 735.40
  C 526.68 648.44 530.14 527.96 603.28 445.53
  C 647.71 395.45 715.09 367.26 782.75 371.16
  Q 851.71 375.12 906.62 416.63
  C 965.76 461.35 999.82 535.03 994.80 609.51
  C 986.64 730.34 885.71 822.63 764.99 819.86
  C 719.55 818.81 676.66 804.14 639.69 777.76
  Q 635.08 774.47 630.47 771.15
  Q 630.03 770.83 629.65 771.21
  Z
  M 903.15 530.88
  C 896.43 575.91 863.83 611.08 819.15 620.24
  C 810.11 622.09 800.59 622.26 791.25 621.99
  Q 784.99 621.81 776.76 620.03
  C 741.60 612.44 712.96 589.07 699.78 555.46
  C 687.52 524.20 690.74 488.21 708.79 459.90
  Q 724.09 435.91 750.52 421.78
  A 0.11 0.11 0.0 0 0 750.46 421.57
  Q 744.92 422.04 739.23 423.10
  C 655.26 438.86 595.53 511.49 595.67 596.75
  C 595.84 703.17 692.79 784.97 797.67 768.64
  C 878.79 756.01 940.10 688.99 945.77 606.99
  C 949.30 556.02 929.98 507.23 894.46 471.27
  Q 893.49 470.30 894.07 471.54
  C 900.14 484.59 903.71 498.77 903.70 513.24
  C 903.70 519.08 904.01 525.09 903.15 530.88
  Z"
/>
</svg>
